<svg xmlns="http://www.w3.org/2000/svg" width="120" height="40" viewBox="0 0 120 40">
  <g fill="none" fill-rule="evenodd">
    <path fill="#2D9CDB" d="M20,10 C26.0751325,10 31,14.9248675 31,21 C31,27.0751325 26.0751325,32 20,32 C13.9248675,32 9,27.0751325 9,21 C9,14.9248675 13.9248675,10 20,10 Z M20,15 C16.6862915,15 14,17.6862915 14,21 C14,24.3137085 16.6862915,27 20,27 C23.3137085,27 26,24.3137085 26,21 C26,17.6862915 23.3137085,15 20,15 Z"/>
    <path fill="#333333" d="M45.568,25 L45.568,15.8 L48.272,15.8 L48.272,25 L45.568,25 Z M46.928,14.68 C46.4,14.68 46.032,14.544 45.824,14.272 C45.616,14 45.512,13.664 45.512,13.264 C45.512,12.864 45.616,12.528 45.824,12.256 C46.032,11.984 46.4,11.848 46.928,11.848 C47.456,11.848 47.824,11.984 48.032,12.256 C48.24,12.528 48.344,12.864 48.344,13.264 C48.344,13.664 48.24,14 48.032,14.272 C47.824,14.544 47.456,14.68 46.928,14.68 Z M54.272,25.144 C53.44,25.144 52.704,24.976 52.064,24.64 C51.424,24.304 50.928,23.824 50.576,23.2 C50.224,22.576 50.048,21.84 50.048,20.992 C50.048,20.144 50.224,19.408 50.576,18.784 C50.928,18.16 51.424,17.68 52.064,17.344 C52.704,17.008 53.44,16.84 54.272,16.84 C55.104,16.84 55.84,17.008 56.48,17.344 C57.12,17.68 57.616,18.16 57.968,18.784 C58.32,19.408 58.496,20.144 58.496,20.992 C58.496,21.84 58.32,22.576 57.968,23.2 C57.616,23.824 57.12,24.304 56.48,24.64 C55.84,24.976 55.104,25.144 54.272,25.144 Z M54.272,22.88 C54.752,22.88 55.152,22.72 55.472,22.4 C55.792,22.08 55.952,21.616 55.952,21.008 C55.952,20.4 55.792,19.936 55.472,19.616 C55.152,19.296 54.752,19.136 54.272,19.136 C53.792,19.136 53.392,19.296 53.072,19.616 C52.752,19.936 52.592,20.4 52.592,21.008 C52.592,21.616 52.752,22.08 53.072,22.4 C53.392,22.72 53.792,22.88 54.272,22.88 Z M64.72,25.144 C63.888,25.144 63.152,24.976 62.512,24.64 C61.872,24.304 61.376,23.824 61.024,23.2 C60.672,22.576 60.496,21.84 60.496,20.992 C60.496,20.144 60.672,19.408 61.024,18.784 C61.376,18.16 61.872,17.68 62.512,17.344 C63.152,17.008 63.888,16.84 64.72,16.84 C65.552,16.84 66.288,17.008 66.928,17.344 C67.568,17.68 68.064,18.16 68.416,18.784 C68.768,19.408 68.944,20.144 68.944,20.992 C68.944,21.84 68.768,22.576 68.416,23.2 C68.064,23.824 67.568,24.304 66.928,24.64 C66.288,24.976 65.552,25.144 64.72,25.144 Z M64.72,22.88 C65.2,22.88 65.6,22.72 65.92,22.4 C66.24,22.08 66.4,21.616 66.4,21.008 C66.4,20.4 66.24,19.936 65.92,19.616 C65.6,19.296 65.2,19.136 64.72,19.136 C64.24,19.136 63.84,19.296 63.52,19.616 C63.2,19.936 63.04,20.4 63.04,21.008 C63.04,21.616 63.2,22.08 63.52,22.4 C63.84,22.72 64.24,22.88 64.72,22.88 Z M70.72,25 L70.72,15.8 L73.424,15.8 L73.424,25 L70.72,25 Z M72.08,14.68 C71.552,14.68 71.184,14.544 70.976,14.272 C70.768,14 70.664,13.664 70.664,13.264 C70.664,12.864 70.768,12.528 70.976,12.256 C71.184,11.984 71.552,11.848 72.08,11.848 C72.608,11.848 72.976,11.984 73.184,12.256 C73.392,12.528 73.496,12.864 73.496,13.264 C73.496,13.664 73.392,14 73.184,14.272 C72.976,14.544 72.608,14.68 72.08,14.68 Z M79.424,25.144 C78.592,25.144 77.856,24.976 77.216,24.64 C76.576,24.304 76.08,23.824 75.728,23.2 C75.376,22.576 75.2,21.84 75.2,20.992 C75.2,20.144 75.376,19.408 75.728,18.784 C76.08,18.16 76.576,17.68 77.216,17.344 C77.856,17.008 78.592,16.84 79.424,16.84 C80.256,16.84 80.992,17.008 81.632,17.344 C82.272,17.68 82.768,18.16 83.12,18.784 C83.472,19.408 83.648,20.144 83.648,20.992 C83.648,21.84 83.472,22.576 83.12,23.2 C82.768,23.824 82.272,24.304 81.632,24.64 C80.992,24.976 80.256,25.144 79.424,25.144 Z M79.424,22.88 C79.904,22.88 80.304,22.72 80.624,22.4 C80.944,22.08 81.104,21.616 81.104,21.008 C81.104,20.4 80.944,19.936 80.624,19.616 C80.304,19.296 79.904,19.136 79.424,19.136 C78.944,19.136 78.544,19.296 78.224,19.616 C77.904,19.936 77.744,20.4 77.744,21.008 C77.744,21.616 77.904,22.08 78.224,22.4 C78.544,22.72 78.944,22.88 79.424,22.88 Z M85.424,25 L85.424,16.984 L87.968,16.984 L87.968,18.64 C88.24,18.048 88.608,17.608 89.072,17.32 C89.536,17.032 90.064,16.888 90.656,16.888 C91.6,16.888 92.336,17.184 92.864,17.776 C93.392,18.368 93.656,19.224 93.656,20.344 L93.656,25 L90.952,25 L90.952,20.92 C90.952,20.376 90.848,19.976 90.64,19.72 C90.432,19.464 90.128,19.336 89.728,19.336 C89.312,19.336 88.976,19.48 88.72,19.768 C88.464,20.056 88.336,20.488 88.336,21.064 L88.336,25 L85.424,25 Z M99.872,25.144 C99.04,25.144 98.304,24.976 97.664,24.64 C97.024,24.304 96.528,23.824 96.176,23.2 C95.824,22.576 95.648,21.84 95.648,20.992 C95.648,20.144 95.824,19.408 96.176,18.784 C96.528,18.16 97.024,17.68 97.664,17.344 C98.304,17.008 99.04,16.84 99.872,16.84 C100.704,16.84 101.44,17.008 102.08,17.344 C102.72,17.68 103.216,18.16 103.568,18.784 C103.92,19.408 104.096,20.144 104.096,20.992 C104.096,21.84 103.92,22.576 103.568,23.2 C103.216,23.824 102.72,24.304 102.08,24.64 C101.44,24.976 100.704,25.144 99.872,25.144 Z M99.872,22.88 C100.352,22.88 100.752,22.72 101.072,22.4 C101.392,22.08 101.552,21.616 101.552,21.008 C101.552,20.4 101.392,19.936 101.072,19.616 C100.752,19.296 100.352,19.136 99.872,19.136 C99.392,19.136 98.992,19.296 98.672,19.616 C98.352,19.936 98.192,20.4 98.192,21.008 C98.192,21.616 98.352,22.08 98.672,22.4 C98.992,22.72 99.392,22.88 99.872,22.88 Z"/>
  </g>
</svg>

